<svg width="31" height="24" viewBox="0 0 31 24" fill="none" xmlns="http://www.w3.org/2000/svg">
<path d="M3 4.5L29.5 2L16 22L11.2014 14.9306L4 14L7.5 10L3 4.5Z" fill="#90F0CE"/>
<path d="M30.3212 1.33249C30.1193 1.03015 29.7154 0.828583 29.2711 0.828583L1.20154 0.862177C0.757272 0.862177 0.353394 1.06374 0.151455 1.36608C-0.0504849 1.66843 -0.0504849 2.07155 0.151455 2.3739L4.95761 9.19343L2.69589 13.8294C2.53434 14.1317 2.57473 14.4341 2.77667 14.7028C2.97861 14.9716 3.30171 15.1395 3.6652 15.2067L9.64261 15.845L14.4488 22.6645C14.6507 22.9669 15.0546 23.1684 15.4989 23.1684C15.9431 23.1684 16.347 22.9669 16.5489 22.6645L30.3212 2.3403C30.5231 2.00436 30.5231 1.63483 30.3212 1.33249ZM15.4585 20.145L11.4197 14.4005C11.2177 14.1317 10.8946 13.9637 10.5311 13.8966L6.73468 13.4934L19.6992 6.87546C20.1838 6.6403 20.4262 6.16999 20.2646 5.73327C20.0627 5.19577 19.4165 4.89343 18.7703 5.0614L6.89623 7.95046L3.3421 2.9114L27.2113 2.84421L15.4585 20.145Z" fill="#444B54"/>
</svg>
